HIERARCHY
ROOT Hips
{
	OFFSET 0.00000 0.00000 0.00000
	CHANNELS 6 Xposition Yposition Zposition Zrotation Yrotation Xrotation 
	JOINT LHipJoint
	{
		OFFSET 0 0 0
		CHANNELS 3 Zrotation Yrotation Xrotation
		JOINT LeftHip
		{
			OFFSET 1.38691 -1.89057 0.78360
			CHANNELS 3 Zrotation Yrotation Xrotation
			JOINT LeftKnee
			{
				OFFSET 2.59731 -7.13606 0.00000
				CHANNELS 3 Zrotation Yrotation Xrotation
				JOINT LeftAnkle
				{
					OFFSET 2.70078 -7.42033 0.00000
					CHANNELS 3 Zrotation Yrotation Xrotation
					JOINT LeftToe
					{
						OFFSET 0.16751 -0.46024 2.68862
						CHANNELS 3 Zrotation Yrotation Xrotation
						End Site
						{
							OFFSET 0.00000 -0.00000 1.37057
						}
					}
				}
			}
		}
	}
	JOINT RHipJoint
	{
		OFFSET 0 0 0
		CHANNELS 3 Zrotation Yrotation Xrotation
		JOINT RightHip
		{
			OFFSET -1.38190 -1.89056 0.78359
			CHANNELS 3 Zrotation Yrotation Xrotation
			JOINT RightKnee
			{
				OFFSET -2.57785 -7.08258 0.00000
				CHANNELS 3 Zrotation Yrotation Xrotation
				JOINT RightAnkle
				{
					OFFSET -2.77908 -7.63547 0.00000
					CHANNELS 3 Zrotation Yrotation Xrotation
					JOINT RightToe
					{
						OFFSET -0.17921 -0.49237 2.62360
						CHANNELS 3 Zrotation Yrotation Xrotation
						End Site
						{
							OFFSET -0.00000 -0.00000 1.34085
						}
					}
				}
			}
		}
	}
	JOINT lowerback
	{
		OFFSET 0 0 0
		CHANNELS 3 Zrotation Yrotation Xrotation
		JOINT Chest
		{
			OFFSET -0.10749 2.04110 -0.22549
			CHANNELS 3 Zrotation Yrotation Xrotation
			JOINT Chest2
			{
				OFFSET 0.01213 2.05840 0.00691
				CHANNELS 3 Zrotation Yrotation Xrotation
				JOINT lowerneck
				{
					OFFSET 0 0 0
					CHANNELS 3 Zrotation Yrotation Xrotation
					JOINT Neck
					{
						OFFSET 0.06585 1.81215 0.35449
						CHANNELS 3 Zrotation Yrotation Xrotation
						JOINT Head
						{
							OFFSET -0.04315 1.87555 -0.27307
							CHANNELS 3 Zrotation Yrotation Xrotation
							End Site
							{
								OFFSET -0.01775 1.89740 -0.13294
							}
						}
					}
				}
				JOINT LeftCollar
				{
					OFFSET 0 0 0
					CHANNELS 3 Zrotation Yrotation Xrotation
					JOINT LeftShoulder
					{
						OFFSET 2.98012 1.63606 0.28888
CHANNELS 3 Zrotation Xrotation Yrotation
						JOINT LeftElbow
						{
OFFSET 0 -5.598640 -0.000000
CHANNELS 3 Zrotation Xrotation Yrotation
							JOINT LeftWrist
							{
OFFSET 0 -3.595420 -0.000000
CHANNELS 3 Zrotation Xrotation Yrotation
								JOINT lhand
								{
									OFFSET 0 0 0
CHANNELS 3 Zrotation Xrotation Yrotation
									JOINT LFingers
									{
OFFSET 0 -0.572010 -0.000000
CHANNELS 3 Zrotation Xrotation Yrotation
										End Site
										{
OFFSET 0 -0.461170 -0.000000
										}
									}
								}
								JOINT LThumb
								{
OFFSET 0 0.000000 0.000000
CHANNELS 3 Zrotation Xrotation Yrotation
									End Site
									{
OFFSET 0 -0.468210 0.468210
									}
								}
							}
						}
					}
				}
				JOINT RightCollar
				{
					OFFSET 0 0 0
					CHANNELS 3 Zrotation Yrotation Xrotation
					JOINT RightShoulder
					{
						OFFSET -3.08694 1.53706 0.36335
CHANNELS 3 Zrotation Xrotation Yrotation
						JOINT RightElbow
						{
OFFSET 0 -5.809400 -0.000000
CHANNELS 3 Zrotation Xrotation Yrotation
							JOINT RightWrist
							{
OFFSET 0 -3.669530 -0.000000
CHANNELS 3 Zrotation Xrotation Yrotation
								JOINT rhand
								{
									OFFSET 0 0 0
CHANNELS 3 Zrotation Xrotation Yrotation
									JOINT RFingers
									{
OFFSET 0 -0.578430 -0.000000
CHANNELS 3 Zrotation Xrotation Yrotation
										End Site
										{
OFFSET 0 -0.466350 -0.000000
										}
									}
								}
								JOINT RThumb
								{
OFFSET 0 0.000000 0.000000
CHANNELS 3 Zrotation Xrotation Yrotation
									End Site
									{
OFFSET 0 -0.473470 0.473470
									}
								}
							}
						}
					}
				}
			}
		}
	}
}
MOTION
Frames: 5
Frame Time: 0.008333333333333333
6.583800 17.528900 8.690500 177.201000 5.462300 178.196000 0.000000 0.000000 0.000000 -12.047100 1.186500 -22.289300 5.732900 14.164500 43.900300 0.355300 -15.562400 -14.395300 0.340100 -3.747700 -10.367900 0.000000 0.000000 0.000000 7.450000 1.132000 -24.380500 -6.600200 -14.985700 47.345300 0.472300 19.505600 -9.270100 -0.341200 3.753800 -10.385000 -6.646000 0.930300 13.024000 -0.339000 0.554100 2.185600 3.291700 0.492700 -5.043700 4.508900 2.665200 -26.779700 -2.024400 2.396500 15.282000 -1.063300 1.158100 9.234100 -0.000000 -0.000000 0.000000 51.036800 -54.928400 -0.103500 75.801900 -59.224400 47.736100 -17.266600 -21.005000 -47.586700 0.000000 0.000000 0.000000 -7.125000 0.000000 0.000000 -71.989000 63.688600 42.363500 -0.000000 -0.000000 0.000000 -44.003300 -56.420800 10.974800 -76.570000 -59.307400 -48.396400 21.882700 -24.801200 39.642500 0.000000 0.000000 0.000000 7.125000 0.000000 -0.000000 63.473600 58.470500 -27.680600
6.584149 17.527758 8.693196 177.298696 5.498746 178.228988 0.000000 0.000000 0.000000 -11.925995 1.198871 -22.350931 5.741623 14.173255 43.935889 0.354602 -15.561861 -14.388734 0.338609 -3.739548 -10.345030 0.000000 0.000000 0.000000 7.568758 1.206477 -24.409396 -6.600803 -14.986271 47.347711 0.466051 19.476545 -9.307117 -0.340851 3.751833 -10.379481 -6.561721 0.936232 13.033770 -0.310135 0.571229 2.170977 3.271590 0.499742 -5.066284 4.510645 2.663868 -26.772975 -2.030871 2.395739 15.270105 -1.065996 1.157085 9.228866 0.000000 0.000000 0.000000 51.058718 -54.929954 -0.081360 75.807610 -59.225034 47.741017 -17.302126 -21.028472 -47.588603 0.000000 0.000000 0.000000 -7.125000 0.000000 0.000000 -72.018119 63.678799 42.375014 0.000000 0.000000 0.000000 -44.000350 -56.417565 10.982793 -76.569207 -59.307305 -48.395702 21.869378 -24.794222 39.638535 0.000000 0.000000 0.000000 7.125000 0.000000 0.000000 63.457835 58.471483 -27.671243
6.584498 17.526616 8.695892 177.396392 5.535191 178.261977 0.000000 0.000000 0.000000 -11.804890 1.211241 -22.412562 5.750346 14.182009 43.971479 0.353904 -15.561322 -14.382168 0.337118 -3.731396 -10.322160 0.000000 0.000000 0.000000 7.687516 1.280955 -24.438293 -6.601405 -14.986842 47.350121 0.459803 19.447490 -9.344133 -0.340502 3.749867 -10.373962 -6.477442 0.942163 13.043539 -0.281270 0.588357 2.156355 3.251480 0.506783 -5.088869 4.512389 2.662536 -26.766251 -2.037342 2.394977 15.258210 -1.068692 1.156070 9.223633 0.000000 0.000000 0.000000 51.080636 -54.931509 -0.059220 75.813319 -59.225669 47.745933 -17.337652 -21.051945 -47.590506 0.000000 0.000000 0.000000 -7.125000 0.000000 0.000000 -72.047237 63.668997 42.386528 0.000000 0.000000 0.000000 -43.997400 -56.414329 10.990787 -76.568414 -59.307210 -48.395004 21.856056 -24.787243 39.634570 0.000000 0.000000 0.000000 7.125000 0.000000 0.000000 63.442071 58.472467 -27.661885
6.584847 17.525474 8.698588 177.494088 5.571637 178.294965 0.000000 0.000000 0.000000 -11.683784 1.223612 -22.474193 5.759069 14.190764 44.007068 0.353207 -15.560782 -14.375602 0.335628 -3.723244 -10.299291 0.000000 0.000000 0.000000 7.806274 1.355432 -24.467189 -6.602008 -14.987413 47.352532 0.453554 19.418435 -9.381150 -0.340153 3.747900 -10.368442 -6.393164 0.948095 13.053309 -0.252406 0.605486 2.141732 3.231369 0.513825 -5.111453 4.514134 2.661203 -26.759526 -2.043812 2.394216 15.246316 -1.071388 1.155055 9.218399 0.000000 0.000000 0.000000 51.102555 -54.933063 -0.037079 75.819029 -59.226303 47.750850 -17.373178 -21.075417 -47.592410 0.000000 0.000000 0.000000 -7.125000 0.000000 0.000000 -72.076356 63.659196 42.398043 0.000000 0.000000 0.000000 -43.994450 -56.411094 10.998780 -76.567621 -59.307115 -48.394307 21.842733 -24.780265 39.630605 0.000000 0.000000 0.000000 7.125000 0.000000 0.000000 63.426306 58.473450 -27.652528
6.584040 17.525676 8.697844 177.453900 5.560966 178.285755 0.000000 0.000000 0.000000 -11.735909 1.214614 -22.454545 5.757040 14.188713 43.998765 0.354686 -15.561802 -14.389437 0.335615 -3.723129 -10.298998 0.000000 0.000000 0.000000 7.754813 1.321053 -24.464988 -6.602019 -14.987419 47.352631 0.457357 19.432116 -9.354734 -0.340476 3.749589 -10.373164 -6.424219 0.945022 13.053510 -0.263106 0.597349 2.144150 3.238997 0.510465 -5.108234 4.508164 2.657425 -26.757828 -2.045687 2.391788 15.235469 -1.071477 1.153341 9.214160 0.000000 0.000000 0.000000 51.119447 -54.933112 -0.014160 75.824012 -59.226857 47.755121 -17.391743 -21.087655 -47.588776 0.000000 0.000000 0.000000 -7.125000 0.000000 0.000000 -72.083434 63.652136 42.394075 0.000000 0.000000 0.000000 -43.990828 -56.404848 11.009112 -76.576477 -59.308041 -48.401914 21.840996 -24.787505 39.633924 0.000000 0.000000 0.000000 7.125000 0.000000 0.000000 63.429222 58.475750 -27.658142
